<svg width="105" height="19" viewBox="0 0 105 19" fill="none" xmlns="http://www.w3.org/2000/svg">
<path d="M3.67502 1.182V14H0.343018V1.182H3.67502ZM6.06382 5.279H9.14082V6.384C9.56012 5.874 9.98512 5.534 10.4158 5.364C10.8464 5.1827 11.3508 5.092 11.9288 5.092C12.5408 5.092 13.0621 5.194 13.4928 5.398C13.9348 5.5907 14.3088 5.8683 14.6148 6.231C14.8641 6.5257 15.0341 6.8543 15.1248 7.217C15.2154 7.5797 15.2608 7.9933 15.2608 8.458V14H12.1838V9.597C12.1838 9.1663 12.1498 8.8207 12.0818 8.56C12.0251 8.288 11.9174 8.0727 11.7588 7.914C11.6228 7.778 11.4698 7.6817 11.2998 7.625C11.1298 7.5683 10.9484 7.54 10.7558 7.54C10.2344 7.54 9.83212 7.6987 9.54882 8.016C9.27682 8.322 9.14082 8.764 9.14082 9.342V14H6.06382V5.279ZM17.3528 5.279H20.4298V6.384C20.8492 5.874 21.2742 5.534 21.7048 5.364C22.1355 5.1827 22.6398 5.092 23.2178 5.092C23.8298 5.092 24.3512 5.194 24.7818 5.398C25.2238 5.5907 25.5978 5.8683 25.9038 6.231C26.1532 6.5257 26.3232 6.8543 26.4138 7.217C26.5045 7.5797 26.5498 7.9933 26.5498 8.458V14H23.4728V9.597C23.4728 9.1663 23.4388 8.8207 23.3708 8.56C23.3142 8.288 23.2065 8.0727 23.0478 7.914C22.9118 7.778 22.7588 7.6817 22.5888 7.625C22.4188 7.5683 22.2375 7.54 22.0448 7.54C21.5235 7.54 21.1212 7.6987 20.8378 8.016C20.5658 8.322 20.4298 8.764 20.4298 9.342V14H17.3528V5.279ZM31.5489 9.597C31.5489 9.8917 31.5999 10.1637 31.7019 10.413C31.8152 10.651 31.9569 10.8607 32.1269 11.042C32.3082 11.2233 32.5179 11.365 32.7559 11.467C33.0052 11.569 33.2659 11.62 33.5379 11.62C33.8099 11.62 34.0649 11.569 34.3029 11.467C34.5522 11.365 34.7619 11.2233 34.9319 11.042C35.1132 10.8607 35.2549 10.651 35.3569 10.413C35.4702 10.1637 35.5269 9.8973 35.5269 9.614C35.5269 9.342 35.4702 9.087 35.3569 8.849C35.2549 8.5997 35.1132 8.3843 34.9319 8.203C34.7619 8.0217 34.5522 7.88 34.3029 7.778C34.0649 7.676 33.8099 7.625 33.5379 7.625C33.2659 7.625 33.0052 7.676 32.7559 7.778C32.5179 7.88 32.3082 8.0217 32.1269 8.203C31.9569 8.3843 31.8152 8.594 31.7019 8.832C31.5999 9.07 31.5489 9.325 31.5489 9.597ZM28.3019 9.563C28.3019 8.917 28.4322 8.3163 28.6929 7.761C28.9536 7.1943 29.3162 6.707 29.7809 6.299C30.2456 5.8797 30.7952 5.551 31.4299 5.313C32.0759 5.075 32.7786 4.956 33.5379 4.956C34.2859 4.956 34.9772 5.075 35.6119 5.313C36.2579 5.5397 36.8132 5.8627 37.2779 6.282C37.7539 6.69 38.1222 7.183 38.3829 7.761C38.6436 8.3277 38.7739 8.9567 38.7739 9.648C38.7739 10.3393 38.6379 10.974 38.3659 11.552C38.1052 12.1187 37.7426 12.6117 37.2779 13.031C36.8132 13.439 36.2522 13.7563 35.5949 13.983C34.9489 14.2097 34.2462 14.323 33.4869 14.323C32.7389 14.323 32.0476 14.2097 31.4129 13.983C30.7782 13.7563 30.2286 13.4333 29.7639 13.014C29.3106 12.5947 28.9536 12.096 28.6929 11.518C28.4322 10.9287 28.3019 10.277 28.3019 9.563ZM49.9436 1.182V11.178H53.9386V14H46.6116V1.182H49.9436ZM58.4474 5.279V14H55.3704V5.279H58.4474ZM55.1664 1.93C55.1664 1.692 55.2117 1.471 55.3024 1.267C55.3931 1.05167 55.5177 0.864669 55.6764 0.705999C55.8351 0.547329 56.0164 0.422669 56.2204 0.331999C56.4357 0.241329 56.6624 0.195999 56.9004 0.195999C57.1384 0.195999 57.3594 0.241329 57.5634 0.331999C57.7787 0.422669 57.9657 0.547329 58.1244 0.705999C58.2831 0.864669 58.4077 1.05167 58.4984 1.267C58.5891 1.471 58.6344 1.692 58.6344 1.93C58.6344 2.168 58.5891 2.39467 58.4984 2.61C58.4077 2.814 58.2831 2.99533 58.1244 3.154C57.9657 3.31267 57.7787 3.43733 57.5634 3.528C57.3594 3.61867 57.1384 3.664 56.9004 3.664C56.6624 3.664 56.4357 3.61867 56.2204 3.528C56.0164 3.43733 55.8351 3.31267 55.6764 3.154C55.5177 2.99533 55.3931 2.814 55.3024 2.61C55.2117 2.39467 55.1664 2.168 55.1664 1.93ZM60.55 5.279H63.627V6.384C64.046 5.874 64.471 5.534 64.902 5.364C65.333 5.1827 65.837 5.092 66.415 5.092C67.027 5.092 67.548 5.194 67.979 5.398C68.421 5.5907 68.795 5.8683 69.101 6.231C69.35 6.5257 69.52 6.8543 69.611 7.217C69.702 7.5797 69.747 7.9933 69.747 8.458V14H66.67V9.597C66.67 9.1663 66.636 8.8207 66.568 8.56C66.511 8.288 66.404 8.0727 66.245 7.914C66.109 7.778 65.956 7.6817 65.786 7.625C65.616 7.5683 65.435 7.54 65.242 7.54C64.721 7.54 64.318 7.6987 64.035 8.016C63.763 8.322 63.627 8.764 63.627 9.342V14H60.55V5.279ZM74.695 9.597C74.695 9.8803 74.746 10.1467 74.848 10.396C74.95 10.634 75.086 10.8437 75.256 11.025C75.438 11.2063 75.647 11.348 75.885 11.45C76.135 11.552 76.401 11.603 76.684 11.603C76.956 11.603 77.211 11.552 77.449 11.45C77.699 11.348 77.908 11.2063 78.078 11.025C78.26 10.8437 78.401 10.634 78.503 10.396C78.616 10.1467 78.673 9.886 78.673 9.614C78.673 9.3307 78.616 9.07 78.503 8.832C78.401 8.594 78.26 8.3843 78.078 8.203C77.897 8.0217 77.681 7.88 77.432 7.778C77.194 7.676 76.945 7.625 76.684 7.625C76.412 7.625 76.157 7.6817 75.919 7.795C75.681 7.897 75.471 8.0387 75.29 8.22C75.109 8.39 74.961 8.594 74.848 8.832C74.746 9.07 74.695 9.325 74.695 9.597ZM81.597 5.279V13.405C81.597 13.8923 81.569 14.3287 81.512 14.714C81.455 15.0993 81.376 15.4393 81.274 15.734C81.138 16.108 80.923 16.4537 80.628 16.771C80.345 17.0997 79.999 17.383 79.591 17.621C79.183 17.859 78.718 18.046 78.197 18.182C77.687 18.318 77.132 18.386 76.531 18.386C75.851 18.386 75.228 18.301 74.661 18.131C74.095 17.961 73.596 17.723 73.165 17.417C72.746 17.1223 72.4 16.771 72.128 16.363C71.856 15.9663 71.675 15.53 71.584 15.054H75.052C75.268 15.632 75.755 15.921 76.514 15.921C77.16 15.921 77.653 15.7397 77.993 15.377C78.345 15.0143 78.52 14.51 78.52 13.864V13.031C78.294 13.2463 78.073 13.4277 77.857 13.575C77.653 13.711 77.444 13.8243 77.228 13.915C77.013 14.0057 76.786 14.068 76.548 14.102C76.31 14.1473 76.049 14.17 75.766 14.17C75.143 14.17 74.571 14.0623 74.049 13.847C73.528 13.6317 73.075 13.3313 72.689 12.946C72.315 12.5607 72.02 12.1017 71.805 11.569C71.601 11.025 71.499 10.4243 71.499 9.767C71.499 9.0983 71.613 8.4807 71.839 7.914C72.066 7.336 72.372 6.8373 72.757 6.418C73.154 5.9873 73.618 5.653 74.151 5.415C74.695 5.1657 75.284 5.041 75.919 5.041C76.95 5.041 77.818 5.4263 78.52 6.197V5.279H81.597ZM86.273 5.279L88.347 9.75L90.455 5.279H93.889L89.35 14H87.293L82.805 5.279H86.273ZM97.407 9.597C97.407 9.8917 97.458 10.1637 97.56 10.413C97.674 10.651 97.815 10.8607 97.985 11.042C98.167 11.2233 98.376 11.365 98.614 11.467C98.864 11.569 99.124 11.62 99.396 11.62C99.668 11.62 99.923 11.569 100.161 11.467C100.411 11.365 100.62 11.2233 100.79 11.042C100.972 10.8607 101.113 10.651 101.215 10.413C101.329 10.1637 101.385 9.8973 101.385 9.614C101.385 9.342 101.329 9.087 101.215 8.849C101.113 8.5997 100.972 8.3843 100.79 8.203C100.62 8.0217 100.411 7.88 100.161 7.778C99.923 7.676 99.668 7.625 99.396 7.625C99.124 7.625 98.864 7.676 98.614 7.778C98.376 7.88 98.167 8.0217 97.985 8.203C97.815 8.3843 97.674 8.594 97.56 8.832C97.458 9.07 97.407 9.325 97.407 9.597ZM94.16 9.563C94.16 8.917 94.291 8.3163 94.551 7.761C94.812 7.1943 95.175 6.707 95.639 6.299C96.104 5.8797 96.654 5.551 97.288 5.313C97.934 5.075 98.637 4.956 99.396 4.956C100.144 4.956 100.836 5.075 101.47 5.313C102.116 5.5397 102.672 5.8627 103.136 6.282C103.612 6.69 103.981 7.183 104.241 7.761C104.502 8.3277 104.632 8.9567 104.632 9.648C104.632 10.3393 104.496 10.974 104.224 11.552C103.964 12.1187 103.601 12.6117 103.136 13.031C102.672 13.439 102.111 13.7563 101.453 13.983C100.807 14.2097 100.105 14.323 99.345 14.323C98.597 14.323 97.906 14.2097 97.271 13.983C96.637 13.7563 96.087 13.4333 95.622 13.014C95.169 12.5947 94.812 12.096 94.551 11.518C94.291 10.9287 94.16 10.277 94.16 9.563Z" fill="white"/>
</svg>
