<svg width="134" height="11" viewBox="0 0 134 11" fill="none" xmlns="http://www.w3.org/2000/svg">
<path d="M2.14589 0.146C3.17259 0.146 3.92059 0.347699 4.38989 0.750999C4.85919 1.1543 5.09389 1.7227 5.09389 2.456C5.09389 2.8887 4.99489 3.2957 4.79689 3.677C4.60619 4.051 4.27989 4.3553 3.81789 4.59C3.36319 4.8247 2.74359 4.942 1.95889 4.942H1.05689V8H0.0668945V0.146H2.14589ZM2.05789 0.993H1.05689V4.095H1.84889C2.59689 4.095 3.15419 3.974 3.52089 3.732C3.88759 3.49 4.07089 3.0793 4.07089 2.5C4.07089 1.994 3.9096 1.6163 3.58689 1.367C3.26419 1.1177 2.75459 0.993 2.05789 0.993ZM8.82809 2.005C9.54669 2.005 10.0784 2.1627 10.4231 2.478C10.7677 2.7933 10.9401 3.2957 10.9401 3.985V8H10.2361L10.0491 7.164H10.0051C9.74839 7.4867 9.47709 7.725 9.19109 7.879C8.91239 8.033 8.52369 8.11 8.02509 8.11C7.48969 8.11 7.04609 7.9707 6.69409 7.692C6.34209 7.406 6.16609 6.9623 6.16609 6.361C6.16609 5.7743 6.39709 5.3233 6.85909 5.008C7.32109 4.6853 8.03239 4.5093 8.99309 4.48L9.99409 4.447V4.095C9.99409 3.6037 9.88769 3.2627 9.67509 3.072C9.46239 2.8813 9.16169 2.786 8.77309 2.786C8.46509 2.786 8.17169 2.8337 7.89309 2.929C7.61439 3.017 7.35409 3.1197 7.11209 3.237L6.81509 2.511C7.07169 2.3717 7.37609 2.2543 7.72809 2.159C8.08009 2.0563 8.44669 2.005 8.82809 2.005ZM9.11409 5.151C8.38069 5.1803 7.87109 5.2977 7.58509 5.503C7.30639 5.7083 7.16709 5.998 7.16709 6.372C7.16709 6.702 7.26609 6.944 7.46409 7.098C7.66939 7.252 7.92969 7.329 8.24509 7.329C8.74369 7.329 9.15809 7.1933 9.48809 6.922C9.81809 6.6433 9.98309 6.218 9.98309 5.646V5.118L9.11409 5.151ZM14.3121 1.994C14.9867 1.994 15.5221 2.1297 15.9181 2.401C16.3214 2.665 16.5231 3.0463 16.5231 3.545C16.5231 3.9043 16.4241 4.1903 16.2261 4.403C16.0281 4.6083 15.7567 4.7587 15.4121 4.854V4.898C15.6467 4.964 15.8631 5.0557 16.0611 5.173C16.2591 5.2903 16.4167 5.4443 16.5341 5.635C16.6587 5.8257 16.7211 6.0713 16.7211 6.372C16.7211 6.8633 16.5157 7.2777 16.1051 7.615C15.7017 7.945 15.0674 8.11 14.2021 8.11C13.7767 8.11 13.3917 8.0733 13.0471 8C12.7024 7.934 12.4164 7.8423 12.1891 7.725V6.856C12.4384 6.9733 12.7317 7.0797 13.0691 7.175C13.4137 7.2703 13.7877 7.318 14.1911 7.318C14.6311 7.318 15.0014 7.2447 15.3021 7.098C15.6101 6.944 15.7641 6.6837 15.7641 6.317C15.7641 5.657 15.2031 5.327 14.0811 5.327H13.2891V4.535H13.9271C14.4331 4.535 14.8364 4.469 15.1371 4.337C15.4451 4.1977 15.5991 3.963 15.5991 3.633C15.5991 3.3543 15.4817 3.1453 15.2471 3.006C15.0197 2.8667 14.6897 2.797 14.2571 2.797C13.9344 2.797 13.6484 2.83 13.3991 2.896C13.1571 2.9547 12.8894 3.0463 12.5961 3.171L12.2551 2.401C12.8711 2.1297 13.5567 1.994 14.3121 1.994ZM22.8947 3.589C22.8947 3.9557 22.7847 4.2417 22.5647 4.447C22.3447 4.6523 22.0623 4.7917 21.7177 4.865V4.909C22.0843 4.9603 22.4033 5.0923 22.6747 5.305C22.946 5.5103 23.0817 5.833 23.0817 6.273C23.0817 6.7717 22.8947 7.186 22.5207 7.516C22.154 7.8387 21.5453 8 20.6947 8H18.1537V2.104H20.6837C21.1017 2.104 21.4757 2.1517 21.8057 2.247C22.143 2.335 22.407 2.489 22.5977 2.709C22.7957 2.9217 22.8947 3.215 22.8947 3.589ZM21.9157 3.71C21.9157 3.4313 21.813 3.2297 21.6077 3.105C21.4097 2.973 21.0833 2.907 20.6287 2.907H19.1217V4.524H20.4526C21.428 4.524 21.9157 4.2527 21.9157 3.71ZM22.0807 6.273C22.0807 5.9357 21.9523 5.6937 21.6957 5.547C21.439 5.4003 21.0613 5.327 20.5627 5.327H19.1217V7.219H20.5847C21.0687 7.219 21.439 7.1493 21.6957 7.01C21.9523 6.8633 22.0807 6.6177 22.0807 6.273ZM25.4045 5.701C25.4045 5.789 25.4009 5.921 25.3935 6.097C25.3862 6.273 25.3752 6.449 25.3605 6.625C25.3532 6.801 25.3459 6.9403 25.3385 7.043L28.4955 2.104H29.6835V8H28.7815V4.524C28.7815 4.4067 28.7815 4.2527 28.7815 4.062C28.7889 3.8713 28.7962 3.6843 28.8035 3.501C28.8109 3.3103 28.8182 3.1673 28.8255 3.072L25.6905 8H24.4915V2.104H25.4045V5.701ZM36.3009 3.589C36.3009 3.9557 36.1909 4.2417 35.9709 4.447C35.7509 4.6523 35.4686 4.7917 35.1239 4.865V4.909C35.4906 4.9603 35.8096 5.0923 36.0809 5.305C36.3522 5.5103 36.4879 5.833 36.4879 6.273C36.4879 6.7717 36.3009 7.186 35.9269 7.516C35.5602 7.8387 34.9516 8 34.1009 8H31.5599V2.104H34.0899C34.5079 2.104 34.8819 2.1517 35.2119 2.247C35.5492 2.335 35.8132 2.489 36.0039 2.709C36.2019 2.9217 36.3009 3.215 36.3009 3.589ZM35.3219 3.71C35.3219 3.4313 35.2192 3.2297 35.0139 3.105C34.8159 2.973 34.4896 2.907 34.0349 2.907H32.5279V4.524H33.8589C34.8342 4.524 35.3219 4.2527 35.3219 3.71ZM35.4869 6.273C35.4869 5.9357 35.3586 5.6937 35.1019 5.547C34.8452 5.4003 34.4676 5.327 33.9689 5.327H32.5279V7.219H33.9909C34.4749 7.219 34.8452 7.1493 35.1019 7.01C35.3586 6.8633 35.4869 6.6177 35.4869 6.273ZM40.1308 2.005C40.8495 2.005 41.3811 2.1627 41.7258 2.478C42.0705 2.7933 42.2428 3.2957 42.2428 3.985V8H41.5388L41.3518 7.164H41.3078C41.0511 7.4867 40.7798 7.725 40.4938 7.879C40.2151 8.033 39.8265 8.11 39.3278 8.11C38.7925 8.11 38.3488 7.9707 37.9968 7.692C37.6448 7.406 37.4688 6.9623 37.4688 6.361C37.4688 5.7743 37.6998 5.3233 38.1618 5.008C38.6238 4.6853 39.3351 4.5093 40.2958 4.48L41.2968 4.447V4.095C41.2968 3.6037 41.1905 3.2627 40.9778 3.072C40.7651 2.8813 40.4645 2.786 40.0758 2.786C39.7678 2.786 39.4745 2.8337 39.1958 2.929C38.9171 3.017 38.6568 3.1197 38.4148 3.237L38.1178 2.511C38.3745 2.3717 38.6788 2.2543 39.0308 2.159C39.3828 2.0563 39.7495 2.005 40.1308 2.005ZM40.4168 5.151C39.6835 5.1803 39.1738 5.2977 38.8878 5.503C38.6091 5.7083 38.4698 5.998 38.4698 6.372C38.4698 6.702 38.5688 6.944 38.7668 7.098C38.9721 7.252 39.2325 7.329 39.5478 7.329C40.0465 7.329 40.4608 7.1933 40.7908 6.922C41.1208 6.6433 41.2858 6.218 41.2858 5.646V5.118L40.4168 5.151ZM46.3408 1.994C46.8468 1.994 47.2795 2.104 47.6388 2.324C48.0055 2.544 48.2841 2.8557 48.4748 3.259C48.6728 3.655 48.7718 4.1207 48.7718 4.656V5.239H44.7348C44.7495 5.9063 44.9181 6.416 45.2408 6.768C45.5708 7.1127 46.0291 7.285 46.6158 7.285C46.9898 7.285 47.3198 7.252 47.6058 7.186C47.8991 7.1127 48.1998 7.01 48.5078 6.878V7.725C48.2071 7.857 47.9101 7.9523 47.6168 8.011C47.3235 8.077 46.9751 8.11 46.5718 8.11C46.0145 8.11 45.5195 7.9963 45.0868 7.769C44.6615 7.5417 44.3278 7.2043 44.0858 6.757C43.8511 6.3023 43.7338 5.7487 43.7338 5.096C43.7338 4.4507 43.8401 3.897 44.0528 3.435C44.2728 2.973 44.5771 2.6173 44.9658 2.368C45.3618 2.1187 45.8201 1.994 46.3408 1.994ZM46.3298 2.786C45.8678 2.786 45.5011 2.9363 45.2298 3.237C44.9658 3.5303 44.8081 3.941 44.7568 4.469H47.7598C47.7525 3.9703 47.6351 3.567 47.4078 3.259C47.1805 2.9437 46.8211 2.786 46.3298 2.786ZM56.5978 2.104V8H55.7288V4.238C55.7288 4.084 55.7325 3.9227 55.7398 3.754C55.7545 3.5853 55.7691 3.4203 55.7838 3.259H55.7508L53.8258 8H53.0118L51.1418 3.259H51.1088C51.1308 3.589 51.1418 3.9263 51.1418 4.271V8H50.2728V2.104H51.5598L53.4188 6.845L55.3108 2.104H56.5978ZM64.6789 1.994C65.4049 1.994 65.9879 2.247 66.4279 2.753C66.8759 3.259 67.0999 4.0217 67.0999 5.041C67.0999 6.0457 66.8759 6.8083 66.4279 7.329C65.9879 7.8497 65.4019 8.11 64.6689 8.11C64.2139 8.11 63.8359 8.0257 63.5349 7.857C63.2419 7.681 63.0109 7.4793 62.8419 7.252H62.7769C62.7909 7.3767 62.8059 7.5343 62.8199 7.725C62.8349 7.9157 62.8419 8.0807 62.8419 8.22V10.64H61.8749V2.104H62.6669L62.7989 2.907H62.8419C63.0179 2.6503 63.2489 2.434 63.5349 2.258C63.8209 2.082 64.2029 1.994 64.6789 1.994ZM64.5039 2.808C63.9019 2.808 63.4769 2.9767 63.2279 3.314C62.9859 3.6513 62.8569 4.1647 62.8419 4.854V5.041C62.8419 5.767 62.9599 6.328 63.1939 6.724C63.4359 7.1127 63.8799 7.307 64.5249 7.307C64.8849 7.307 65.1779 7.208 65.4059 7.01C65.6399 6.812 65.8129 6.5443 65.9229 6.207C66.0399 5.8623 66.0989 5.47 66.0989 5.03C66.0989 4.3553 65.9659 3.8163 65.7019 3.413C65.4459 3.0097 65.0459 2.808 64.5039 2.808ZM67.6109 2.104H68.6449L69.9209 5.459C70.0309 5.7523 70.1299 6.0347 70.2179 6.306C70.3059 6.57 70.3719 6.823 70.4159 7.065H70.4599C70.5039 6.8817 70.5729 6.6433 70.6689 6.35C70.7639 6.0493 70.8629 5.7487 70.9659 5.448L72.1649 2.104H73.2099L70.6689 8.814C70.4629 9.3713 70.1959 9.815 69.8659 10.145C69.5429 10.475 69.0959 10.64 68.5239 10.64C68.3479 10.64 68.1939 10.629 68.0619 10.607C67.9299 10.5923 67.8159 10.574 67.7209 10.552V9.782C67.8009 9.7967 67.8969 9.8113 68.0069 9.826C68.1239 9.8407 68.2449 9.848 68.3699 9.848C68.7069 9.848 68.9779 9.7527 69.1839 9.562C69.3959 9.3713 69.5609 9.1183 69.6789 8.803L69.9869 8.022L67.6109 2.104ZM76.5069 8.11C75.9859 8.11 75.5209 8.0037 75.1099 7.791C74.7069 7.5783 74.3879 7.2483 74.1529 6.801C73.9259 6.3537 73.8119 5.7817 73.8119 5.085C73.8119 4.359 73.9329 3.7687 74.1749 3.314C74.4169 2.8593 74.7429 2.5257 75.1539 2.313C75.5719 2.1003 76.0449 1.994 76.5729 1.994C76.8739 1.994 77.1629 2.027 77.4419 2.093C77.7209 2.1517 77.9479 2.225 78.1239 2.313L77.8269 3.116C77.6509 3.05 77.4459 2.9877 77.2109 2.929C76.9759 2.8703 76.7559 2.841 76.5509 2.841C75.3919 2.841 74.8129 3.5853 74.8129 5.074C74.8129 5.7853 74.9519 6.3317 75.2309 6.713C75.5169 7.087 75.9389 7.274 76.4959 7.274C76.8189 7.274 77.1009 7.241 77.3429 7.175C77.5919 7.109 77.8199 7.0283 78.0249 6.933V7.791C77.8269 7.8937 77.6069 7.9707 77.3649 8.022C77.1299 8.0807 76.8439 8.11 76.5069 8.11ZM81.7919 8.11C81.2709 8.11 80.8059 8.0037 80.3949 7.791C79.9919 7.5783 79.6729 7.2483 79.4379 6.801C79.2109 6.3537 79.0969 5.7817 79.0969 5.085C79.0969 4.359 79.2179 3.7687 79.4599 3.314C79.7019 2.8593 80.0289 2.5257 80.4389 2.313C80.8569 2.1003 81.3299 1.994 81.8579 1.994C82.1589 1.994 82.4489 2.027 82.7269 2.093C83.0059 2.1517 83.2329 2.225 83.4089 2.313L83.1119 3.116C82.9359 3.05 82.7309 2.9877 82.4959 2.929C82.2619 2.8703 82.0409 2.841 81.8359 2.841C80.6769 2.841 80.0979 3.5853 80.0979 5.074C80.0979 5.7853 80.2369 6.3317 80.5159 6.713C80.8019 7.087 81.2239 7.274 81.7809 7.274C82.1039 7.274 82.3859 7.241 82.6279 7.175C82.8769 7.109 83.1049 7.0283 83.3099 6.933V7.791C83.1119 7.8937 82.8919 7.9707 82.6499 8.022C82.4149 8.0807 82.1289 8.11 81.7919 8.11ZM88.1989 2.104H89.2549L86.7359 4.942L89.4639 8H88.3419L85.6799 5.008V8H84.7119V2.104H85.6799V4.964L88.1989 2.104ZM89.6109 2.104H90.6449L91.9209 5.459C92.0309 5.7523 92.1299 6.0347 92.2179 6.306C92.3059 6.57 92.3719 6.823 92.4159 7.065H92.4599C92.5039 6.8817 92.5729 6.6433 92.6689 6.35C92.7639 6.0493 92.8629 5.7487 92.9659 5.448L94.1649 2.104H95.2099L92.6689 8.814C92.4629 9.3713 92.1959 9.815 91.8659 10.145C91.5429 10.475 91.0959 10.64 90.5239 10.64C90.3479 10.64 90.1939 10.629 90.0619 10.607C89.9299 10.5923 89.8159 10.574 89.7209 10.552V9.782C89.8009 9.7967 89.8969 9.8113 90.0069 9.826C90.1239 9.8407 90.2449 9.848 90.3699 9.848C90.7069 9.848 90.9779 9.7527 91.1839 9.562C91.3959 9.3713 91.5609 9.1183 91.6789 8.803L91.9869 8.022L89.6109 2.104ZM103.798 5.041C103.798 6.0163 103.563 6.7717 103.094 7.307C102.625 7.8423 101.99 8.11 101.191 8.11C100.443 8.11 99.8379 7.8753 99.3759 7.406C98.9209 6.9367 98.6649 6.2583 98.6059 5.371H97.1099V8H96.1419V2.104H97.1099V4.557H98.6169C98.6979 3.7283 98.9649 3.094 99.4199 2.654C99.8749 2.214 100.472 1.994 101.213 1.994C101.719 1.994 102.166 2.115 102.555 2.357C102.944 2.5917 103.248 2.9363 103.468 3.391C103.688 3.8383 103.798 4.3883 103.798 5.041ZM99.5959 5.041C99.5959 5.7817 99.7239 6.3463 99.9809 6.735C100.238 7.1163 100.645 7.307 101.202 7.307C101.767 7.307 102.174 7.1163 102.423 6.735C102.672 6.3463 102.797 5.7817 102.797 5.041C102.797 4.3003 102.669 3.743 102.412 3.369C102.163 2.995 101.759 2.808 101.202 2.808C100.645 2.808 100.238 2.995 99.9809 3.369C99.7239 3.743 99.5959 4.3003 99.5959 5.041ZM111.537 1.994C112.263 1.994 112.846 2.247 113.286 2.753C113.733 3.259 113.957 4.0217 113.957 5.041C113.957 6.0457 113.733 6.8083 113.286 7.329C112.846 7.8497 112.259 8.11 111.526 8.11C111.071 8.11 110.694 8.0257 110.393 7.857C110.1 7.681 109.869 7.4793 109.7 7.252H109.634C109.649 7.3767 109.663 7.5343 109.678 7.725C109.693 7.9157 109.7 8.0807 109.7 8.22V10.64H108.732V2.104H109.524L109.656 2.907H109.7C109.876 2.6503 110.107 2.434 110.393 2.258C110.679 2.082 111.06 1.994 111.537 1.994ZM111.361 2.808C110.76 2.808 110.334 2.9767 110.085 3.314C109.843 3.6513 109.715 4.1647 109.7 4.854V5.041C109.7 5.767 109.817 6.328 110.052 6.724C110.294 7.1127 110.738 7.307 111.383 7.307C111.742 7.307 112.036 7.208 112.263 7.01C112.498 6.812 112.67 6.5443 112.78 6.207C112.897 5.8623 112.956 5.47 112.956 5.03C112.956 4.3553 112.824 3.8163 112.56 3.413C112.303 3.0097 111.904 2.808 111.361 2.808ZM117.776 1.994C118.282 1.994 118.715 2.104 119.074 2.324C119.441 2.544 119.72 2.8557 119.91 3.259C120.108 3.655 120.207 4.1207 120.207 4.656V5.239H116.17C116.185 5.9063 116.354 6.416 116.676 6.768C117.006 7.1127 117.465 7.285 118.051 7.285C118.425 7.285 118.755 7.252 119.041 7.186C119.335 7.1127 119.635 7.01 119.943 6.878V7.725C119.643 7.857 119.346 7.9523 119.052 8.011C118.759 8.077 118.411 8.11 118.007 8.11C117.45 8.11 116.955 7.9963 116.522 7.769C116.097 7.5417 115.763 7.2043 115.521 6.757C115.287 6.3023 115.169 5.7487 115.169 5.096C115.169 4.4507 115.276 3.897 115.488 3.435C115.708 2.973 116.013 2.6173 116.401 2.368C116.797 2.1187 117.256 1.994 117.776 1.994ZM117.765 2.786C117.303 2.786 116.937 2.9363 116.665 3.237C116.401 3.5303 116.244 3.941 116.192 4.469H119.195C119.188 3.9703 119.071 3.567 118.843 3.259C118.616 2.9437 118.257 2.786 117.765 2.786ZM122.555 4.249C122.555 4.9237 122.933 5.261 123.688 5.261C124.055 5.261 124.389 5.206 124.689 5.096C124.99 4.9787 125.298 4.8247 125.613 4.634V2.104H126.581V8H125.613V5.371C125.283 5.5837 124.957 5.7523 124.634 5.877C124.319 5.9943 123.938 6.053 123.49 6.053C122.889 6.053 122.42 5.8953 122.082 5.58C121.752 5.2647 121.587 4.843 121.587 4.315V2.104H122.555V4.249ZM131.172 4.524C132.704 4.524 133.471 5.0813 133.471 6.196C133.471 6.746 133.284 7.186 132.91 7.516C132.536 7.8387 131.942 8 131.128 8H128.455V2.104H129.423V4.524H131.172ZM132.503 6.251C132.503 5.8917 132.374 5.6497 132.118 5.525C131.868 5.393 131.516 5.327 131.062 5.327H129.423V7.219H131.084C131.494 7.219 131.832 7.1457 132.096 6.999C132.367 6.8523 132.503 6.603 132.503 6.251Z" fill="white"/>
</svg>
